# xmcd
#
# Track frame offsets:
# 150
# 18050
# 36979
# 54227
# 70550
# 85762
# 99869
# 118461
# 132999
# 149392
# 164300
# 189287
# 203070
# 221289
# 238232
#
# Disc length: 3398 seconds
#
#
# Revision: 0
# Processed by: cddbd v1.5.2PL0 Copyright (c) Steve Scherf et al.
# Submitted via: FreeRIP 2.951 
#
DISCID=c70d440f
DTITLE=Maria Cecília e Rodolfo - 2009 - Ao Vivo
DYEAR=2009
DGENRE=Country
TTITLE0=Você Não Merece
TTITLE1=Basta Você Me Olhar
TTITLE2=Você De Volta
TTITLE3=Delícia
TTITLE4=Você Me Paga
TTITLE5=Quem Ama Cuida
TTITLE6=A Fila Andou
TTITLE7=Vou Jogar A Chave Fora
TTITLE8=Coisas Exotéricas
TTITLE9=Cego,Surdo e Mudo
TTITLE10=Águas Passadas/Nuvem De Lágrimas/Ainda ontem...
TTITLE11=Nós Dois
TTITLE12=Primeiro Passo
TTITLE13=Meu e Seu - Part.Alexandre Peixe
TTITLE14=Bagunçando O Meu Coração
EXTD=
EXTT0=
EXTT1=
EXTT2=
EXTT3=
EXTT4=
EXTT5=
EXTT6=
EXTT7=
EXTT8=
EXTT9=
EXTT10=
EXTT11=
EXTT12=
EXTT13=
EXTT14=
PLAYORDER=
